<?xml version="1.0" standalone="no"?>
<!DOCTYPE svg PUBLIC "-//W3C//DTD SVG 20010904//EN"
 "http://www.w3.org/TR/2001/REC-SVG-20010904/DTD/svg10.dtd">
<svg version="1.0" xmlns="http://www.w3.org/2000/svg"
 width="512.000000pt" height="512.000000pt" viewBox="0 0 512.000000 512.000000"
 preserveAspectRatio="xMidYMid meet">
<metadata>
Created by potrace 1.14, written by Peter Selinger 2001-2017
</metadata>
<g transform="translate(0.000000,512.000000) scale(0.100000,-0.100000)"
fill="#000000" stroke="none">
<path d="M2864 4681 c-17 -10 -42 -36 -55 -57 -20 -32 -23 -51 -22 -114 1 -80
-7 -100 -41 -100 -12 0 -32 -7 -44 -16 -18 -12 -22 -25 -22 -66 0 -27 7 -65
15 -82 21 -44 107 -140 150 -166 34 -21 46 -40 25 -40 -5 0 -31 15 -58 34 -65
47 -91 52 -125 26 -30 -24 -28 -5 -30 -275 -1 -83 23 -157 77 -238 18 -27 18
-29 0 -62 -25 -47 -40 -44 -48 8 -20 124 -89 222 -173 243 -36 9 -92 -32 -114
-83 -24 -56 -25 -165 -3 -234 17 -50 16 -51 -7 -82 -21 -28 -24 -42 -24 -122
1 -74 5 -98 25 -138 34 -68 70 -107 126 -136 34 -18 50 -34 52 -50 5 -36 -9
-43 -61 -31 -66 17 -111 0 -137 -50 -11 -22 -20 -49 -20 -60 0 -35 -22 -18
-58 44 -32 54 -33 58 -18 81 9 13 16 35 16 48 0 14 7 44 15 67 31 88 11 211
-51 307 -49 77 -92 93 -133 49 -25 -27 -51 -103 -51 -153 0 -57 -21 -41 -83
63 -40 66 -45 94 -23 135 35 68 51 145 51 252 0 108 0 109 -29 134 -22 18 -37
24 -60 20 -17 -2 -44 2 -59 10 -32 16 -79 10 -98 -13 -21 -26 -37 -15 -98 64
-65 86 -95 111 -145 119 -46 7 -70 -9 -85 -56 -10 -35 -9 -48 9 -98 33 -90 32
-96 -19 -105 -108 -19 -121 -107 -29 -195 64 -61 112 -78 214 -77 88 2 92 1
103 -23 21 -47 16 -53 -49 -53 -80 0 -158 -37 -166 -79 -3 -16 -33 -56 -69
-94 -88 -90 -104 -155 -51 -199 32 -26 66 -22 132 18 32 20 88 51 124 69 60
30 72 33 158 32 91 0 93 -1 119 -31 24 -28 24 -31 8 -41 -63 -36 -100 -73
-106 -105 -8 -36 -31 -60 -59 -60 -22 0 -50 -32 -50 -57 0 -26 24 -47 83 -73
26 -12 47 -25 47 -29 0 -15 -82 -32 -120 -26 -45 8 -191 -17 -269 -46 -142
-52 -214 -149 -158 -214 22 -26 30 -29 78 -27 32 1 106 18 178 42 163 53 169
53 127 -3 -30 -40 -56 -102 -56 -134 0 -26 26 -84 44 -95 34 -23 112 9 173 70
55 54 143 156 143 165 0 4 4 7 9 7 4 0 6 -22 3 -48 -8 -86 31 -131 102 -118
44 9 78 47 126 144 22 45 44 82 49 82 7 0 75 -81 135 -162 l27 -36 -29 -49
c-25 -41 -44 -85 -58 -141 -6 -23 -37 -26 -85 -9 -68 24 -94 22 -121 -12 -13
-17 -49 -40 -85 -54 -35 -14 -83 -42 -107 -62 -38 -31 -47 -45 -55 -88 -17
-81 -19 -657 -3 -742 27 -141 63 -285 82 -330 5 -11 18 -41 30 -67 24 -57 71
-112 120 -143 102 -64 315 -95 521 -76 302 28 368 77 458 346 44 132 68 234
96 415 54 337 70 595 41 648 -8 15 -17 39 -20 53 -12 54 -35 69 -119 76 -52 4
-81 11 -84 20 -10 27 17 40 95 46 119 9 237 61 262 116 8 17 8 33 -1 58 -11
33 -10 36 29 69 93 79 97 181 8 205 -23 6 -47 13 -53 15 -7 2 -13 8 -13 14 0
6 32 10 79 10 l80 0 6 -47 c8 -72 24 -111 68 -178 72 -107 103 -140 156 -165
63 -29 90 -22 135 33 25 31 31 48 32 90 1 51 2 52 46 74 103 50 127 130 62
203 l-36 40 21 33 c40 65 20 147 -45 188 -91 56 -265 36 -462 -53 -69 -31 -87
-28 -77 14 5 20 16 26 68 38 77 17 210 84 281 142 97 79 137 158 100 199 -16
18 -29 20 -104 19 -47 -1 -88 -2 -92 -1 -4 1 2 22 12 47 28 64 26 98 -6 123
-15 12 -36 21 -48 21 -34 0 -123 -48 -150 -81 -33 -38 -44 -37 -51 9 -21 132
-73 212 -138 212 -49 0 -91 -38 -117 -106 -18 -50 -19 -63 -9 -117 19 -103 49
-189 85 -240 19 -26 34 -52 34 -57 0 -20 -19 -9 -38 23 -104 167 -186 226
-228 162 -13 -20 -16 -42 -12 -98 8 -130 105 -284 203 -321 45 -18 52 -29 36
-55 -11 -17 -47 -11 -131 24 -92 37 -110 60 -103 128 5 50 3 55 -22 75 -15 12
-41 22 -58 22 l-29 0 7 55 c4 33 2 77 -6 109 l-12 54 40 49 c22 26 47 62 55
78 8 17 21 43 29 59 8 16 35 41 60 55 80 45 186 139 208 185 30 62 27 89 -15
126 l-36 31 64 67 c74 77 100 121 102 172 1 50 -26 87 -73 101 -39 11 -68 6
-154 -27 -25 -9 -21 8 17 73 43 72 71 170 62 217 -4 18 -16 46 -28 61 -19 25
-26 27 -67 22 -25 -4 -58 -9 -73 -13 -25 -6 -28 -3 -38 35 -13 51 -73 111
-109 111 -14 0 -40 -9 -57 -19z m84 -27 c28 -19 48 -58 56 -109 6 -36 1 -52
-43 -135 -27 -52 -55 -95 -61 -95 -7 0 -27 17 -44 38 -30 38 -31 41 -31 144
l0 104 37 35 c42 38 54 41 86 18z m232 -124 c11 -7 15 -27 14 -77 -1 -77 -35
-167 -82 -217 -30 -32 -101 -86 -113 -86 -10 0 -59 97 -59 118 0 61 104 236
154 258 37 16 65 17 86 4z m-372 -179 c36 -27 162 -200 162 -223 0 -24 -23
-48 -45 -48 -25 0 -101 53 -141 98 -33 38 -74 121 -74 152 0 56 38 64 98 21z
m512 -171 c25 -13 33 -54 19 -101 -22 -70 -213 -241 -286 -255 -25 -4 -32 1
-60 47 -18 28 -33 59 -33 69 0 22 78 121 135 172 77 68 171 97 225 68z m-262
-52 c-3 -7 -13 -15 -24 -17 -16 -3 -17 -1 -5 13 16 19 34 21 29 4z m-248 -90
c52 -43 149 -163 178 -220 15 -30 14 -32 -12 -55 -37 -32 -54 -29 -118 17
-111 79 -200 244 -156 288 22 22 55 13 108 -30z m153 -20 c-25 -43 -43 -47
-43 -10 0 35 6 42 38 42 l24 0 -19 -32z m-1407 -47 c38 -23 101 -97 132 -154
28 -52 32 -147 6 -147 -20 0 -143 76 -162 99 -47 59 -74 160 -53 200 14 26 37
27 77 2z m1217 -158 l67 -72 -6 -58 c-6 -60 -31 -97 -58 -87 -42 16 -112 229
-92 280 8 22 12 19 89 -63z m458 17 c29 -16 25 -69 -9 -116 -33 -45 -97 -99
-165 -138 l-47 -28 -40 41 c-22 23 -44 41 -50 41 -23 0 -6 30 43 77 108 102
215 151 268 123z m-1373 -27 c5 -10 15 -58 22 -106 13 -93 1 -204 -23 -219
-40 -24 -117 107 -117 199 0 36 18 90 39 120 20 27 66 31 79 6z m108 -14 c46
-51 9 -304 -55 -381 -19 -23 -54 -23 -75 1 -19 21 -15 25 26 35 48 11 61 59
55 213 -4 123 0 153 23 153 4 0 15 -9 26 -21z m610 -94 c63 -65 88 -153 82
-285 -3 -69 -10 -106 -22 -124 -9 -14 -20 -26 -24 -26 -4 0 -22 24 -40 54 -21
37 -48 64 -81 84 -40 25 -51 38 -65 80 -20 64 -20 120 0 183 30 91 84 104 150
34z m-1026 12 c68 -28 146 -81 161 -108 25 -48 -65 -98 -149 -83 -106 19 -199
115 -177 183 11 37 87 40 165 8z m1350 -6 c0 -5 -7 -14 -15 -21 -13 -10 -15
-9 -15 9 0 12 6 21 15 21 8 0 15 -4 15 -9z m417 -113 c31 -35 39 -55 59 -156
l18 -92 -42 -86 c-46 -92 -59 -100 -93 -54 -45 60 -84 229 -72 305 7 44 58
105 87 105 12 0 32 -10 43 -22z m-395 1 c26 -14 49 -69 41 -100 -10 -40 -66
-121 -129 -185 -75 -77 -107 -98 -135 -89 -20 7 -21 12 -16 74 9 108 76 239
146 287 39 26 62 30 93 13z m728 -167 c0 -94 -199 -362 -270 -362 -86 0 -21
197 110 330 81 84 160 99 160 32z m-1825 -106 c66 -35 120 -69 120 -77 0 -8
-16 -22 -35 -32 -53 -27 -205 -19 -280 15 -68 31 -93 57 -88 94 4 35 57 64
118 63 35 0 71 -14 165 -63z m386 27 c27 -30 47 -76 63 -147 13 -54 14 -76 5
-114 -7 -26 -14 -49 -15 -51 -2 -2 -35 11 -73 29 -65 32 -70 37 -80 76 -14 57
-14 88 3 153 24 89 53 105 97 54z m293 8 c10 -9 32 -45 48 -81 16 -36 33 -73
38 -82 14 -24 12 -122 -2 -153 -18 -40 -62 -34 -108 14 -69 72 -96 162 -79
256 14 74 51 91 103 46z m-614 0 c22 -4 36 -13 38 -24 5 -25 -23 -22 -75 8
-47 28 -56 41 -20 30 12 -4 38 -10 57 -14z m1192 -72 c32 -15 87 -86 130 -171
61 -120 49 -220 -22 -183 -73 38 -149 170 -166 287 -10 75 5 92 58 67z m746
-26 c5 -33 -44 -98 -112 -150 -75 -56 -205 -119 -267 -128 -82 -12 -125 34
-51 55 37 9 69 39 203 187 41 46 87 62 169 60 48 -2 55 -5 58 -24z m-2235 -47
c26 -15 47 -31 47 -34 0 -7 -54 -40 -158 -100 -36 -20 -48 -23 -68 -13 -17 7
-24 19 -24 39 0 31 46 103 89 139 22 18 29 20 46 9 11 -7 41 -25 68 -40z
m1265 -48 l-5 -78 -74 -78 c-41 -42 -85 -91 -99 -107 l-25 -30 -3 45 c-4 47
33 217 52 241 22 29 129 97 144 92 11 -5 14 -21 10 -85z m-856 40 c26 -22 68
-84 61 -91 -21 -22 -88 1 -117 40 -19 26 -19 26 5 44 29 22 31 22 51 7z m672
-29 c-9 -15 -54 -204 -63 -267 l-9 -57 -1 67 c0 37 5 87 13 110 8 24 17 63 20
87 8 52 23 84 37 76 5 -4 7 -11 3 -16z m-510 -129 c65 -33 93 -71 78 -104 -17
-38 -68 -49 -208 -44 -105 3 -128 7 -151 24 -54 41 -33 96 52 135 58 27 165
22 229 -11z m781 -4 c66 -48 -44 -250 -183 -333 -48 -30 -117 -31 -132 -4 -18
34 -12 47 64 149 87 116 130 162 177 185 42 20 50 21 74 3z m375 -25 c0 -15 9
-36 20 -46 15 -14 20 -31 20 -73 0 -46 -4 -59 -30 -89 -26 -29 -30 -41 -28
-84 3 -59 -11 -76 -81 -99 -54 -18 -64 -5 -21 28 71 55 83 71 75 105 -10 49
-9 66 8 157 9 47 17 98 17 113 0 16 4 26 10 22 6 -3 10 -19 10 -34z m565 -72
c68 -25 99 -65 91 -118 -3 -19 -12 -41 -20 -50 -23 -23 -159 -41 -261 -34 -51
3 -114 1 -145 -5 -120 -24 -173 -26 -199 -5 l-24 19 31 35 c50 58 207 130 342
159 111 24 119 24 185 -1z m-2017 -55 c20 -8 92 -21 159 -27 123 -11 140 -18
127 -52 -8 -20 -82 -29 -185 -22 -165 12 -287 84 -184 110 35 8 45 7 83 -9z
m432 -126 c40 -62 75 -122 78 -133 8 -32 51 -97 94 -141 31 -32 39 -48 36 -70
-2 -21 -9 -30 -24 -32 -17 -2 -39 19 -101 100 -100 128 -106 140 -99 186 8 45
-19 94 -61 114 -28 13 -40 45 -29 74 12 31 37 9 106 -98z m245 89 c21 -18 28
-35 34 -82 8 -66 18 -90 50 -119 12 -11 21 -27 21 -37 0 -17 -109 -119 -127
-119 -13 0 -56 48 -85 95 -23 38 -58 158 -58 200 0 11 9 35 20 53 18 29 24 32
69 32 37 0 57 -6 76 -23z m459 15 c2 -4 -7 -12 -20 -19 -26 -12 -27 -12 -18
11 6 17 29 22 38 8z m144 -61 c40 -15 81 -35 90 -44 14 -15 14 -18 -4 -38 -41
-46 -134 -89 -134 -61 -1 14 -28 137 -35 155 -9 23 -3 22 83 -12z m-223 -41
c-8 -23 -15 -64 -15 -91 0 -26 -5 -51 -11 -55 -15 -9 -69 45 -69 70 0 18 99
131 107 122 2 -1 -4 -22 -12 -46z m112 18 c13 -25 17 -58 18 -134 0 -106 -14
-154 -44 -154 -29 0 -41 16 -56 74 -19 71 -19 108 0 170 26 84 53 98 82 44z
m-909 -44 c-6 -31 -35 -40 -67 -21 -40 23 -54 22 -133 -15 -58 -26 -71 -29
-79 -17 -5 8 -9 19 -9 26 0 22 91 42 193 42 86 1 98 -1 95 -15z m112 -19 c17
-50 -1 -124 -58 -236 -34 -68 -55 -98 -75 -107 -62 -30 -98 22 -74 106 9 28
21 61 28 74 16 32 99 159 117 181 24 28 49 21 62 -18z m1714 -28 c52 -29 66
-68 41 -113 -66 -123 -406 -81 -453 56 -9 23 -7 33 6 50 15 17 31 20 127 23
61 1 139 4 175 5 51 1 73 -3 104 -21z m-2169 1 c32 -14 32 -28 -2 -61 -34 -32
-106 -64 -238 -106 -118 -38 -198 -49 -220 -31 -57 47 49 148 200 191 70 20
223 24 260 7z m242 -3 c29 -77 -262 -428 -332 -401 -24 9 -36 55 -29 104 12
78 155 225 280 287 58 28 73 30 81 10z m784 -44 c12 -16 41 -44 66 -61 24 -17
52 -48 62 -68 11 -20 29 -45 40 -54 30 -26 26 -40 -19 -66 -22 -12 -46 -35
-55 -51 -8 -16 -30 -39 -50 -51 -19 -12 -57 -46 -84 -77 -68 -76 -97 -66 -100
36 -1 28 8 44 54 92 136 143 140 304 8 284 -53 -8 -56 7 -5 28 53 21 59 21 83
-12z m612 -50 c19 -18 19 -20 1 -66 -22 -58 -78 -100 -127 -95 -50 5 -158 5
-207 0 -58 -6 -62 12 -15 67 81 95 291 151 348 94z m-303 0 c0 -6 -4 -13 -10
-16 -5 -3 -10 1 -10 9 0 9 5 16 10 16 6 0 10 -4 10 -9z m-330 -16 c38 -46 -85
-241 -164 -261 -55 -13 -95 40 -82 110 17 87 203 202 246 151z m831 -66 c11
-5 58 -17 105 -25 125 -22 134 -26 134 -70 0 -44 -32 -100 -62 -107 -46 -12
-100 30 -183 146 -47 64 -45 84 6 56z m-313 -123 c94 -48 -25 -146 -198 -162
-83 -8 -109 -2 -143 32 -58 58 -21 117 81 130 31 4 66 11 77 15 31 14 146 4
183 -15z m-793 -52 c18 -7 55 -74 55 -102 0 -10 -20 -41 -44 -69 -40 -47 -96
-163 -96 -198 0 -8 -6 -15 -13 -15 -8 0 -13 13 -14 35 -1 20 -7 43 -14 51 -24
29 -16 141 15 209 40 89 63 107 111 89z m121 -90 c7 -27 -7 -50 -25 -40 -6 4
-11 20 -11 37 0 37 27 40 36 3z m308 -13 c31 -31 37 -43 31 -62 -12 -38 -23
-46 -71 -54 -46 -6 -132 -42 -171 -71 -22 -15 -23 -15 -23 2 0 50 142 224 182
224 8 0 31 -18 52 -39z m-337 -136 c-8 -106 -91 -229 -132 -195 -34 28 12 169
77 237 46 47 62 35 55 -42z m-336 23 c57 -45 79 -77 86 -126 7 -49 -8 -72 -45
-72 -63 0 -177 173 -142 215 20 24 55 18 101 -17z m899 -43 c30 -36 -9 -73
-116 -111 -80 -28 -251 -51 -307 -40 -52 10 -57 30 -16 73 69 71 132 91 305
92 95 1 124 -2 134 -14z m-1016 -50 c16 -30 48 -73 73 -96 42 -38 47 -41 91
-36 26 3 59 8 74 12 23 6 29 3 39 -18 7 -15 9 -41 5 -62 l-7 -37 -92 5 c-201
11 -361 49 -398 93 -7 9 -12 32 -12 51 1 44 40 87 108 119 75 36 87 33 119
-31z m511 -5 c14 -64 -4 -110 -68 -177 -65 -68 -106 -82 -126 -45 -11 20 10
62 31 62 37 0 109 95 132 173 8 27 24 20 31 -13z m535 -53 c0 -15 -41 -55 -83
-81 -65 -40 -229 -77 -419 -93 -102 -9 -110 -1 -59 51 l42 43 137 6 c137 5
214 22 322 71 43 19 60 20 60 3z m13 -128 c-2 -71 -30 -328 -48 -454 -26 -178
-54 -302 -105 -455 -75 -222 -121 -263 -336 -300 -274 -47 -537 -1 -638 111
-32 35 -53 72 -87 154 -20 48 -56 214 -81 380 -20 131 -20 153 -10 354 6 118
14 216 17 219 2 3 10 0 17 -6 54 -44 250 -78 508 -88 135 -6 221 0 410 26 132
18 259 60 315 104 31 24 40 13 38 -45z"/>
</g>
</svg>
